<?xml version="1.0" encoding="utf-8"?>
<!-- Generator: Adobe Illustrator 16.0.0, SVG Export Plug-In . SVG Version: 6.00 Build 0)  -->
<!DOCTYPE svg PUBLIC "-//W3C//DTD SVG 1.1//EN" "http://www.w3.org/Graphics/SVG/1.1/DTD/svg11.dtd">
<svg version="1.1" id="Layer_1" xmlns="http://www.w3.org/2000/svg" xmlns:xlink="http://www.w3.org/1999/xlink" x="0px" y="0px"
	 width="221px" height="190px" viewBox="0 0 221 190" enable-background="new 0 0 221 190" xml:space="preserve">
<path fill-rule="evenodd" clip-rule="evenodd" d="M84.82,172.88c0,9.46,7.7,17.12,17.2,17.12c9.49,0,17.2-7.66,17.2-17.12
	c0-9.45-7.71-17.11-17.2-17.11C92.52,155.77,84.82,163.43,84.82,172.88z M152.68,172.88c0,9.46,7.7,17.12,17.2,17.12
	c9.49,0,17.19-7.66,17.19-17.12c0-9.45-7.7-17.11-17.19-17.11C160.38,155.77,152.68,163.43,152.68,172.88z M48.8,0H8.6
	C3.25,0,0,4.39,0,8.56c0,4.16,3.02,7.63,8.13,8.79h33.24c0.69,0,1.16,0.46,1.16,0.92c2.78,9.02,5.11,18.5,7.9,27.76
	c0.7,2.54,1.39,5.08,2.09,7.4c0.7,2.54,1.63,5.08,2.09,7.4c0.93,2.77,1.86,6.01,2.56,9.02c0.93,3.47,2.09,7.17,3.02,10.64
	c1.16,4.39,2.55,9.25,3.95,13.87c1.39,5.32,3.02,10.64,4.41,15.73c1.86,6.01,3.03,12.72,5.35,18.74c2.56,6.7,1.16,17.57,12.08,19.89
	h107.83c4.18,0,8.37-4.63,8.37-8.79c0-3.7-3.26-8.1-8.37-8.56H93.88c-0.69,0-1.16-0.46-1.16-0.93l-2.71-9.48h95.67
	c1.86,0,6.27-2.54,6.97-4.16c0.46-1.16,1.39-2.31,1.63-3.01c7.43-18.96,14.64-37.93,21.84-56.89c1.63-3.94,4.88-10.18,4.88-14.58
	c0-3.93-3.25-8.78-8.83-9.02L65.31,33.31c-1.12-4.32-2.32-8.68-3.73-12.73C59.03,13.18,59.49,1.16,48.8,0z M85.08,103.61
	L71.34,55.05c-0.39-1.45-0.81-2.92-1.24-4.4h128.59c0.23,0.23,0.7,0.23,0.7,0.7c0,0.69-10.92,28.67-16.5,43.01
	c-1.16,2.78-1.86,6.71-4.42,9.26L85.08,103.61z"/>
</svg>
